<svg xmlns="http://www.w3.org/2000/svg" width="48" height="48" viewBox="0 0 24 24"><defs><linearGradient id="g0" x1="0" y1="0" x2="0" y2="1"><stop offset="0" stop-color="#ffa0a0"/><stop offset="0.5" stop-color="#d03a4a"/><stop offset="1" stop-color="#6e1424"/></linearGradient><linearGradient id="g1" x1="0" y1="0" x2="0" y2="1"><stop offset="0" stop-color="#ffa0a0"/><stop offset="0.5" stop-color="#d03a4a"/><stop offset="1" stop-color="#6e1424"/></linearGradient><linearGradient id="g2" x1="0" y1="0" x2="0" y2="1"><stop offset="0" stop-color="#fff4c2"/><stop offset="0.5" stop-color="#f4d35e"/><stop offset="1" stop-color="#b07a1e"/></linearGradient><linearGradient id="g3" x1="0" y1="0" x2="0" y2="1"><stop offset="0" stop-color="#fff4c2"/><stop offset="0.5" stop-color="#e0b040"/><stop offset="1" stop-color="#9a6a14"/></linearGradient></defs><path d="M8.4 13 L6.6 21.2 L9 19.9 L10.6 21.5 L11.6 14.6 Z" fill="url(#g0)" stroke="#2a050b" stroke-width="1" stroke-linejoin="round"/><path d="M15.6 13 L17.4 21.2 L15 19.9 L13.4 21.5 L12.4 14.6 Z" fill="url(#g1)" stroke="#2a050b" stroke-width="1" stroke-linejoin="round"/><path d="M18.4 9.6 A6.4 6.4 0 1 1 18.39 9.5 Z" fill="url(#g2)" stroke="#4a300a" stroke-width="1" stroke-linejoin="round"/><circle cx="12" cy="9.6" r="4.7" fill="none" stroke="#4a300a" stroke-width="0.6" opacity="0.5"/><path d="M12 6.6 L12.79 8.71 L15.04 8.81 L13.28 10.22 L13.88 12.39 L12 11.15 L10.12 12.39 L10.72 10.22 L8.96 8.81 L11.21 8.71 Z" fill="url(#g3)" stroke="#4a300a" stroke-width="0.5"/><path d="M7.4 7.6 A5 5 0 0 1 10.8 4.4" fill="none" stroke="#fff" stroke-width="0.8" stroke-linecap="round" stroke-linejoin="round" opacity="0.65"/></svg>
