<svg xmlns="http://www.w3.org/2000/svg" width="48" height="48" viewBox="0 0 24 24"><defs><linearGradient id="g0" x1="0" y1="0" x2="0" y2="1"><stop offset="0" stop-color="#f2f6ff"/><stop offset="0.5" stop-color="#a8b6d4"/><stop offset="1" stop-color="#4a5a80"/></linearGradient><linearGradient id="g1" x1="0" y1="0" x2="0" y2="1"><stop offset="0" stop-color="#5a6c94"/><stop offset="0.5" stop-color="#3a4a70"/><stop offset="1" stop-color="#202a46"/></linearGradient></defs><path d="M12 2.8 L19.6 5.6 V11.4 C19.6 16.2 16.4 19.6 12 21.2 C7.6 19.6 4.4 16.2 4.4 11.4 V5.6 Z" fill="url(#g0)" stroke="#1a1e30" stroke-width="1" stroke-linejoin="round"/><path d="M12 2.8 L4.4 5.6 V11.4 C4.4 16.2 7.6 19.6 12 21.2 Z" fill="#fff" opacity="0.18"/><g transform="translate(12 12) scale(0.72) translate(-12 -12)"><path d="M12 2.8 L19.6 5.6 V11.4 C19.6 16.2 16.4 19.6 12 21.2 C7.6 19.6 4.4 16.2 4.4 11.4 V5.6 Z" fill="url(#g1)" stroke="#9fd4ff" stroke-width="0.9"/></g></svg>
