<svg xmlns="http://www.w3.org/2000/svg" width="48" height="48" viewBox="0 0 24 24"><defs><linearGradient id="g0" x1="0" y1="0" x2="0" y2="1"><stop offset="0" stop-color="#ffe6f0"/><stop offset="0.5" stop-color="#ff8fb8"/><stop offset="1" stop-color="#b8406e"/></linearGradient></defs><path d="M12 20.2 C5 15.2 3.4 10.4 5.8 7.2 C7.8 4.8 10.8 5.2 12 7.8 C13.2 5.2 16.2 4.8 18.2 7.2 C20.6 10.4 19 15.2 12 20.2 Z" fill="url(#g0)" stroke="#4a1029" stroke-width="1" stroke-linejoin="round"/><path d="M7 9 C7.4 7.6 8.6 7 9.8 7.3" fill="none" stroke="#fff" stroke-width="1.1" stroke-linecap="round" stroke-linejoin="round" opacity="0.75"/><path d="M19.6 1.6 L20.15 3.45 L22 4 L20.15 4.55 L19.6 6.4 L19.05 4.55 L17.2 4 L19.05 3.45 Z" fill="#fff"/><path d="M4.4 3.1 L4.75 4.25 L5.9 4.6 L4.75 4.95 L4.4 6.1 L4.05 4.95 L2.9 4.6 L4.05 4.25 Z" fill="#ffe6f0"/></svg>
